<?xml version="1.0" encoding="utf-8"?>
<!-- Generator: Adobe Illustrator 22.0.1, SVG Export Plug-In . SVG Version: 6.00 Build 0)  -->
<svg version="1.1" id="Calque_1" xmlns="http://www.w3.org/2000/svg" xmlns:xlink="http://www.w3.org/1999/xlink" x="0px" y="0px"
	 viewBox="0 0 500 300" style="enable-background:new 0 0 500 300;" xml:space="preserve">
<style type="text/css">
	.st0{clip-path:url(#SVGID_2_);fill:#010202;}
	.st1{clip-path:url(#SVGID_2_);enable-background:new    ;}
	.st2{font-family:'Roboto-Regular';}
	.st3{font-size:25.1092px;}
</style>
<g>
	<defs>
		<rect id="SVGID_1_" x="1" y="50.3" width="498" height="196.7"/>
	</defs>
	<clipPath id="SVGID_2_">
		<use xlink:href="#SVGID_1_"  style="overflow:visible;"/>
	</clipPath>
	<path class="st0" d="M196.4,120.8c-4.4-2.3-68,24.3-64.7,47.1c0.2,1.3,12.8,25.9,88.5-16.5c4.8-2.7,41-33.7-11.5-45.8
		c-11.1-2.5-38.9-9,4.4-34.7c6.3-3.8,17.2-10,31.4-7.7c2.5,0.4,6.1,7.7-13,19.9c-4.2,2.7-17.4,12.8-11.7,0.2
		c-1.5,0.2-11.7,11.9-2.9,14.6c8.8,2.7,43.3-18,31.6-36.6c-2.7-4.2-23-8.4-57.5,14c-4,2.5-28.9,24.1,15.1,33.1
		c7.5,1.5,41.6,10,9.8,31.6c-5.4,3.8-17.4,14.4-56.9,25.9c-9.8,2.9-31.8,1.3-12.1-15.9c1.5-1.3,20.5-20.3,46-27.2
		C196,122.5,196.4,120.8,196.4,120.8z"/>
	<path class="st0" d="M261.7,108.1c1-1,4-4.2,7.5-0.8c3.6,3.6,4.4,4.4,1,7.1s-18.6,22.6-18.6,23.6c2.5-2.3,20.3-19.9,34.3-29.3
		c2.3-1.7,6.5-3.8,9.4-0.2c2.9,3.6,2.3,4.8-1.7,9.6c-4,4.8-17.8,22.4-16.3,26.4c3.6-1.7,16.7-13,19.9-15.9
		c9.4-9.4,18.6-23,44.2-21.3c-2.9,0.6-24.7,4.2-38.3,34.5c-1.5,3.1-2.3,11.7,9.6,1.9c11.9-9.8,21.3-22.2,18-26.4
		c-1.7-2.1,4-5.2,4-5.2s1.5-1.9,4.6,1.5c3.1,3.3,4.4,5,4.4,5l7.1-0.2l8.6-9.4c0,0,1.3-2.3,5.2-0.2s4.8,5,1.3,8.8
		c-3.6,3.6-15.3,17.2-15.3,25.1c2.9-1,22.4-17.6,28-29.1c1-2.1,4.2-4,7.3-1.3c3.1,2.7,5.2,4,0.2,9c-5,5-12.1,17.8-11.3,22
		c2.9-2.3,25.3-19.3,42.1-46c-0.6,6.3-16.9,34.7-41,52.5c-4,2.9-9.4,3.6-11.3-4c-0.4-2.1,1.3-11.1,3.8-13.6
		c-3.1,2.9-22.4,24.9-25.9,18.8c-4.6-8,1-17.8,6.9-28.7c-2.3,0.2-8.6,0-8.6,0s-4.8,17.4-30.1,29.1c-1.7,0.8-11.9,4-17.4-4.2
		c-1.3-1.7-0.6-7.5,1-11.1c-2.1,1.7-11.5,13.8-21.3,16.3c-1.5,0.4-9.8-5.4-4.2-15.3s15.9-22.2,15.9-22.2s-42.5,27.2-38.9,38.7
		c-1.3,0.4-13.4-4.6-4.8-16.3C249.4,125.6,261.7,108.1,261.7,108.1z"/>
	<g class="st1">
		<text transform="matrix(1 0 0 1 13.1953 245.3008)" class="st2 st3">MINIMAL &amp; CLEAN PORTFOLIO TEMPLATE</text>
	</g>
</g>
</svg>
