<?xml version="1.0" encoding="utf-8"?>
<!-- Generator: Adobe Illustrator 22.0.1, SVG Export Plug-In . SVG Version: 6.00 Build 0)  -->
<svg version="1.1" id="Calque_1" xmlns="http://www.w3.org/2000/svg" xmlns:xlink="http://www.w3.org/1999/xlink" x="0px" y="0px"
	 viewBox="0 0 500 300" style="enable-background:new 0 0 500 300;" xml:space="preserve">
<style type="text/css">
	.st0{clip-path:url(#SVGID_2_);fill:#010202;}
</style>
<g>
	<defs>
		<rect id="SVGID_1_" x="1.3" y="44.2" width="497.3" height="203.9"/>
	</defs>
	<clipPath id="SVGID_2_">
		<use xlink:href="#SVGID_1_"  style="overflow:visible;"/>
	</clipPath>
	<path class="st0" d="M123.7,155.6c-7.5-3.9-114.3,40.8-108.8,79.2c0.3,2.3,21.6,43.6,148.9-27.7c8.1-4.6,69-56.8-19.2-76.9
		c-18.6-4.2-65.3-15.1,7.5-58.3c10.4-6.2,28.8-16.7,52.8-13c4.2,0.7,10.4,13.1-21.8,33.6c-7.2,4.6-29.3,21.5-19.6,0.3
		c-2.6,0.3-19.9,20.2-4.9,24.8s73-30.3,53.1-61.6c-4.6-7.2-38.9-14.2-96.8,23.5c-6.5,4.2-48.6,40.5,25.4,55.7
		c12.7,2.6,70.1,16.8,16.6,53.1c-9.1,6.2-29.3,24.1-95.8,43.7c-16.6,4.9-53.7,2.3-20.5-26.7c2.6-2.3,34.5-34.2,77.6-45.6
		C123,158.2,123.7,155.6,123.7,155.6z"/>
	<path class="st0" d="M233.6,134c1.6-1.9,6.7-7.2,12.5-1.3c5.9,5.9,7.5,7.5,1.9,12c-5.6,4.5-31.1,38.1-31.4,39.9
		c4.3-3.7,34.1-33.4,57.8-49.3c4-2.7,10.9-6.4,16-0.3c5.1,6.1,4,8-2.9,16.2s-29.8,37.5-27.4,44.2c5.9-2.7,28.2-21.7,33.5-26.9
		c16-15.7,31.4-38.9,74.3-35.9c-5.1,1.1-41.6,7.2-64.4,58c-2.4,5.3-3.7,19.7,16.2,3.2c20-16.5,35.9-37.2,30.4-44.5
		c-2.7-3.5,6.7-8.8,6.7-8.8s2.4-3.2,7.7,2.4c5.3,5.6,7.5,8.5,7.5,8.5l12-0.3l14.4-16c0,0,2.1-3.7,8.8-0.3c6.7,3.5,8,8.5,2.1,14.6
		c-5.9,6.1-25.6,29-25.8,42.3c4.8-1.6,37.8-29.6,47.1-49c1.7-3.5,6.9-6.7,12.2-2.1c5.3,4.5,8.8,6.7,0.3,15.2
		c-8.5,8.5-20.5,30.1-18.9,37c5.1-3.7,42.5-32.4,70.7-77.4c-1,10.5-28.3,58.5-69.1,88.4c-6.8,5-15.9,6-18.9-6.8
		c-0.8-3.4,2-18.7,6.4-22.7c-5.4,4.8-37.7,41.8-43.6,31.7c-7.9-13.5,1.6-29.9,11.8-48.2c-4,0.2-14.3,0-14.3,0s-8.2,29.2-50.6,49
		c-3,1.4-20,6.8-29.3-7.2c-2-3-1-12.6,1.6-18.7c-3.4,2.8-19.5,23.3-36.1,27.5c-2.4,0.6-16.5-9.2-7.2-25.7
		c9.4-16.5,26.9-37.5,26.9-37.5s-71.3,45.6-65.4,65c-2.2,0.6-22.5-7.6-8.2-27.3S233.6,134,233.6,134z"/>
</g>
</svg>
